<svg width="48" height="48" viewBox="0 0 48 48" fill="none" xmlns="http://www.w3.org/2000/svg">
<rect width="48" height="48" fill="white"/>
<path d="M13.3 15.102C8.7 17.898 6 21.898 6 21.898C6 21.898 6.7 13.5 13.3 8.602C15.898 6.602 19.5 5 24.3 5C26.102 5 29.898 5.3 33.3 7.398C36.7 9.5 38.103 11.2 39.7 13.7C40.398 14.802 40.898 16.2 41.2 17.501C41.8 20.001 41.898 23.103 41.898 23.103V27H17C17 27 16.898 35.102 28.2 35.102C32.102 35.102 33.5 34.5 34.8 34.102C36.8 33.5 39 32 39 32V40C39 40 34.102 43 27.102 43C25.102 43 23.102 42.8 21.102 42.2C19.398 41.602 15.699 40.2 13.301 36.7C12.398 35.5 11.5 33.8 11 32.2C10.5 30.5 10.5 28.8 10.5 27.898C10.5 24.398 11.7 21.102 13.8 18.699C16.603 15.602 20 14 20 14C20 14 17 16.8 17 20H31C31 20 31.102 12 23.3 12C20.102 12 16.102 13.398 13.3 15.102Z" fill="#1976D2"/>
</svg>
