<svg width="48" height="48" viewBox="0 0 48 48" fill="none" xmlns="http://www.w3.org/2000/svg">
<rect width="48" height="48" fill="white"/>
<path d="M44.3799 24.9299C44.3799 21.7077 43.5467 18.6844 42.0859 16.0538C48.3131 1.96083 35.4138 4.02704 34.6956 4.16747C31.9629 4.70199 29.4344 5.56168 27.1021 6.65007C26.7582 6.63071 26.4124 6.62054 26.0633 6.62054C17.3597 6.62054 10.0741 12.6912 8.20964 20.8293C12.7968 15.683 16.0075 13.6066 17.93 12.7758C17.6229 13.0498 17.3227 13.3274 17.0273 13.6066L16.737 13.8872C16.5421 14.0746 16.3478 14.2622 16.1578 14.4516C16.0449 14.5641 15.9347 14.6776 15.8235 14.7912C15.6548 14.9625 15.4868 15.1337 15.3224 15.306L14.9772 15.6742C14.8237 15.8386 14.6708 16.0033 14.5211 16.1683L14.1756 16.5539C14.0339 16.7137 13.8931 16.8735 13.754 17.0339C13.6388 17.1668 13.5249 17.2997 13.4121 17.4329C13.2805 17.5881 13.1506 17.7436 13.0219 17.8988C12.9081 18.0363 12.7949 18.1738 12.6836 18.311C12.5632 18.4596 12.4454 18.6079 12.3283 18.7559C12.2141 18.8996 12.1002 19.043 11.989 19.1864L11.6763 19.5953C11.5595 19.7491 11.4417 19.903 11.3275 20.0559L11.0876 20.3834C10.3641 21.3711 9.70261 22.3394 9.10543 23.2696L9.10116 23.2765C8.94399 23.5216 8.79239 23.7628 8.64343 24.002L8.61914 24.0413C8.47018 24.2815 8.32646 24.5175 8.18635 24.7514L8.17158 24.776C7.79489 25.405 7.44544 26.0111 7.13077 26.581C5.48129 29.5706 4.67804 31.6594 4.64325 31.7831C-0.566059 50.4072 15.6925 42.5427 17.9612 41.3686C20.4041 42.5755 23.1544 43.3285 26.0633 43.3285C34.0285 43.3282 40.8043 38.1094 43.3266 31.2188H33.7023C32.2783 33.5156 29.5371 35.1723 26.3874 35.1723C21.7724 35.1723 18.0314 31.5469 18.0314 27.2813H44.2296C44.329 26.625 44.3799 25.7292 44.3799 24.9299V24.9299ZM7.43822 41.3306C6.15329 40.0132 5.92622 36.8041 8.76122 30.9566C10.1918 35.0703 13.0469 38.5169 16.737 40.7045C14.9018 41.7148 10.0298 43.9887 7.43822 41.3306ZM17.9911 22.3594C18.1374 18.0938 21.7855 14.8109 26.2683 14.8109C30.7509 14.8109 34.3996 18.0938 34.5459 22.3594H17.9911V22.3594ZM32.6832 7.85494C34.3783 7.03627 38.5756 5.30508 40.9585 6.9129C42.5358 7.97766 43.801 9.64946 41.6285 15.2798C39.5446 11.9286 36.4097 9.30001 32.6832 7.85494Z" fill="#E2E2E2"/>
</svg>
