<svg width="48" height="48" viewBox="0 0 48 48" fill="none" xmlns="http://www.w3.org/2000/svg">
<rect width="48" height="48" fill="white"/>
<path d="M43 24C43 34.492 34.492 43 24 43C13.508 43 5 34.492 5 24C5 13.508 13.508 5 24 5C34.492 5 43 13.508 43 24Z" fill="#01579B"/>
<path d="M34 20.8C34 20.2 34 17.898 32.5 16.102C32.398 16 32.3 15.801 32.3 15.699C32.2 15.602 32.2 15.5 32.102 15.301L31.898 15L31.699 14.7C31.5 14.398 31.399 14.2 31.399 14.2C31 13.602 30.899 12.8 31.301 12.102C31.398 11.898 31.601 11.699 31.699 11.5C31.602 11.398 31.5 11.3 31.399 11.3H31.3C30.999 11.102 30.698 10.898 30.499 10.7L29.799 10.2C29.299 9.898 28.999 9.8 28.999 9.7C28.299 9.3 27.897 8.602 27.999 7.8C28.101 7 28.601 6.3 29.397 6.102C29.499 6.102 29.698 6 29.897 6L29.8 5.898C28 5.301 26 5 24 5C16.602 5 10.102 9.3 7 15.5V16C7 23.2 13.3 29 21 29C26.898 29 31.898 25.602 34 20.8Z" fill="#0277BD"/>
<path d="M30 8.00001C30 8.00001 30.3 7.89801 30.898 7.89801H31.898C32.301 7.89801 32.699 8.00001 33.199 8.10201C33.699 8.19901 34.199 8.39801 34.699 8.60201C35.199 8.80101 35.801 9.10201 36.301 9.50001C36.801 9.80001 37.301 10.3 37.801 10.7C38.301 11.102 38.699 11.7 39.101 12.2C39.398 12.8 39.801 13.3 40.101 13.898C40.398 14.5 40.601 15.102 40.801 15.699C41 16.301 41.101 16.899 41.199 17.399C41.301 18 41.301 18.5 41.301 18.899V19.602C41.301 19.801 41.301 20 41.199 20.199C41.199 20.602 41.102 20.899 41.102 21.199C41.102 21.699 41 22 41 22C41 22 40.8 21.7 40.602 21.2C40.5 21 40.301 20.7 40.199 20.3C40.102 20 39.899 19.602 39.699 19.2C39.5 18.8 39.301 18.398 39.102 17.898C38.898 17.5 38.602 17 38.398 16.5C38.199 16 37.898 15.602 37.602 15.102C37.301 14.602 37 14.199 36.699 13.801C36.399 13.398 36.102 12.898 35.699 12.601C35.301 12.199 35 11.801 34.602 11.5C34.301 11.102 33.898 10.8 33.5 10.5C33.102 10.2 32.8 9.89801 32.398 9.70001C32.102 9.39801 31.699 9.20001 31.398 9.00001C31.1411 8.82027 30.8754 8.65339 30.602 8.50001C30.3 8.20001 30 8.00001 30 8.00001Z" fill="#FFF176"/>
<path d="M43.102 17.602C42.801 15.398 41.898 13.398 40.898 12C40.398 11.3 39.898 10.8 39.602 10.5C39.199 10.2 39 10 39 10C39 10 39 10.3 39.102 10.8C39.199 11.3 39.199 11.898 39.301 12.7C39.398 13.102 39.398 13.5 39.5 13.898C39.102 13.301 38.602 12.699 38.102 12.301C37.602 11.801 37 11.5 36.699 11.301C36.2 11.1 36 11 36 11C36 11 36.102 11.2 36.2 11.602C36.3 12 36.5 12.5 36.7 13.199C36.898 13.899 37.2 14.801 37.5 15.699C36.898 15 36.3 14.399 35.7 14C35 13.602 34.398 13.3 33.898 13.2C33.301 13 33 13 33 13C33 13 33.2 13.2 33.398 13.602C33.5 13.801 33.699 14 33.801 14.301C34 14.601 34.101 14.898 34.301 15.199C34.601 15.801 35 16.5 35.301 17.301C35.5 17.699 35.601 18.101 35.801 18.5C35.898 18.898 36.199 19.3 36.301 19.8C36.5 20.2 36.601 20.602 36.801 21.102C36.898 21.5 37.101 21.898 37.199 22.398C37.301 22.801 37.5 23.199 37.602 23.602C37.699 24 37.801 24.398 38 24.699C38.3 25.399 38.5 26 38.7 26.399C38.898 26.801 39 27 39 27C39 27 39.102 26.8 39.3 26.3C39.398 26.102 39.5 25.8 39.5 25.5C39.602 25.2 39.7 24.8 39.7 24.398C39.7 24.102 39.8 23.801 39.8 23.5C39.898 23.8 40 24 40 24C40 24 40.102 23.8 40.3 23.398C40.398 23.199 40.5 23 40.602 22.699V22.602C40.602 22.801 40.602 23.102 40.699 23.301C40.699 23.699 40.801 24 40.801 24.301V25.199C40.801 25.699 40.898 26 40.898 26C40.898 26 41.102 25.8 41.398 25.398C41.5 25.199 41.699 25 41.898 24.699C42.102 24.399 42.199 24.102 42.398 23.699C42.602 23.301 42.699 22.899 42.801 22.399C42.898 21.899 43 21.399 43.101 20.899C43.199 20.399 43.199 19.801 43.199 19.301C43.301 18.699 43.199 18.101 43.102 17.601V17.602Z" fill="#FDD835"/>
<path d="M44.102 19.8C44.102 19.3 44 19 44 19C44 19 43.8 19.3 43.5 19.7C43.2 20.2 42.898 20.8 42.5 21.602C42.2 22.301 41.8 23.102 41.398 23.898C41.398 23.102 41.398 22.398 41.301 21.699C41.199 21.102 41.101 20.602 41 20.102C40.8 19.602 40.7 19.102 40.5 18.699C40.2 17.801 39.8 17.199 39.5 16.699C39.2 16.199 39 16 39 16C39 16 38.898 17.2 38.898 19C38.898 19.898 38.801 20.8 38.699 21.898C38.699 22.398 38.602 22.898 38.602 23.5C38.602 24 38.5 24.602 38.398 25.102V25.5C38.301 24.602 38 23.7 37.602 23.102C37.3659 22.5436 37.0266 22.0347 36.602 21.602C36.199 21.102 36 21 36 21V21.7C36 22.102 36 22.7 35.898 23.398C35.801 24.699 35.602 26.398 35.398 28C35.301 28.398 35.199 28.8 35.199 29.2C35.102 29.602 35 30 35 30.398C34.898 30.801 34.8 31.199 34.7 31.5C34.602 31.898 34.5 32.2 34.5 32.5C34.398 32.8 34.398 33.2 34.3 33.398C34.2 33.699 34.2 33.898 34.102 34.199C34 34.7 34 35 34 35C34 35 34.2 34.898 34.602 34.602C35 34.3 35.5 34 36 33.398C36.2 33.102 36.5 32.801 36.8 32.398C37 32 37.3 31.699 37.5 31.301C37.5 31.601 37.398 31.898 37.398 32.199C37.301 32.5 37.301 32.899 37.199 33.102C37 33.699 37 34 37 34C37.102 33.898 37.398 34 37.7 34.102C37.7 34.199 37.602 34.301 37.602 34.301C37.5 34.601 37.398 34.898 37.301 35.199C37.1 35.7 37 36 37 36C37 36 37.3 35.898 37.7 35.602C37.898 35.398 38.2 35.301 38.5 35C38.8 34.8 39.102 34.5 39.398 34.102C39.699 33.801 40 33.398 40.398 33C40.699 32.602 41 32.102 41.301 31.602C41.8996 30.583 42.4017 29.5103 42.801 28.398C43.199 27.301 43.601 26.102 43.801 25C44 23.898 44.101 22.898 44.199 22C44.199 21.102 44.199 20.398 44.102 19.8V19.8Z" fill="#FFB300"/>
<path d="M41.398 30.398C41 30.602 40.602 31 40 31.398C39.2 32 38.3 32.801 37.398 33.699C37.5 33.399 37.699 33.102 37.801 32.801C38.101 31.898 38.199 31.101 38.301 30.398C38.301 29.699 38.301 29.102 38.199 28.699C38.102 28.2 38 28 38 28C38 28 37.8 28.2 37.602 28.5C37.398 28.8 37 29.3 36.602 29.8C36.199 30.3 35.801 31 35.398 31.602C35.301 31.699 35.301 31.801 35.199 31.898C35.399 31.301 35.399 30.602 35.399 30C35.399 29.2 35.199 28.398 35 27.8C34.8 27.2 34.5 26.7 34.3 26.398C34.2 26.2 34 26 34 26C34 26 33.898 26.2 33.8 26.602C33.7 26.898 33.5 27.398 33.3 28C33.102 28.5 33 29.102 32.8 29.8C32.7 30.102 32.602 30.398 32.5 30.8C32.398 31.102 32.3 31.398 32.2 31.602C30.3 33.5 28 34 25.8 34.102C24.602 34.102 23.5 33.898 22.5 33.602C21 33.102 19.602 32.199 18.3 31C20.2 31.2 22 30.8 23.5 30.102L26 28.5C26.3 28.398 26.602 28.398 26.898 28.5C27.5 28.398 27.699 28.102 27.5 27.5C27.2 27.102 26.7 26.7 26.2 26.398C24.898 25.699 23.602 25.801 22.2 26.699C20.898 27.399 19.7 27.301 18.398 26.602C15.301 25 16.5 20.898 19.801 23C20 22 19.699 20.898 19.101 19.8C16.199 14.5 19.5 10.2 20.601 9.5C18.601 9.7 16.801 10.602 15.199 12.102C4.9 10.898 4 20.898 4 21L5.2 19.898C4.8 21 4.5 22.102 4.398 23.301C4 27.199 5.102 31 7.7 34.8C11.7 39.898 18 43 24 43C30.8 43 35.2 40.5 38.102 37.3C38.301 37.102 38.5 36.898 38.699 36.7C39.301 36 39.899 35.3 40.399 34.5C40.899 33.8 41.199 33 41.5 32.3C41.7 31.602 41.898 31 42 30.602V30C42 30 41.8 30.102 41.398 30.398V30.398Z" fill="#FF9800"/>
<path d="M12 28C11.8 21 16.3 21.602 18.602 22.398C17 22.102 16.3 23.602 17 25C16.7 25 13.602 24.7 12 28ZM18.3 30.898C20.2 31.102 22 30.699 23.5 30L26 28.398C26.2 28.301 26.5 28.301 26.7 28.398C23.8 26.699 20.7 30.301 13.898 29.199C15.602 30.5 18.301 30.899 18.301 30.899L18.3 30.898ZM18.103 14.5C17.899 16 18.2 17.8 19.2 19.7C20.602 18.897 22 18 22 18C22 18 24 16 22 16C20.102 16 18.8 15.2 18.102 14.5H18.103ZM10.3 12.398C9.398 11.602 8 10 8 8C8 8 5.602 11.898 6.5 15C7.398 13.898 8.7 13 10.3 12.398Z" fill="#EF6C00"/>
<path d="M19.2 19.7C20.601 18.897 22 18 22 18L22.398 17.602L22 17H18.2C18.398 17.898 18.7 18.8 19.2 19.7Z" fill="#FFCC80"/>
<path d="M22 16C21.7 16 21.398 16 21.102 15.898L21 16C21 16 21.8 17.3 22 18C22 18 24 16 22 16Z" fill="#5D4037"/>
</svg>
