<?xml version="1.0" encoding="UTF-8"?>
<svg width="139px" height="47px" viewBox="0 0 139 47" version="1.1" xmlns="http://www.w3.org/2000/svg" xmlns:xlink="http://www.w3.org/1999/xlink">
    <!-- Generator: Sketch 47.1 (45422) - http://www.bohemiancoding.com/sketch -->
    <title>Artboard 2 Copy</title>
    <desc>Created with Sketch.</desc>
    <defs>
        <path d="M7.28514773,30.7393138 C11.3444895,30.7393138 13.2945655,28.3410606 13.4935528,24.4324856 C16.2395781,24.1881997 21.0152743,22.8407351 21.0152743,12.7842974 C21.0152743,2.15785911 16.0803882,0.203571614 10.5087427,0.203571614 L2.90742621,0.203571614 C1.11654014,0.203571614 0.0022110245,1.34357266 0.0022110245,3.29786015 L0.0022110245,28.0114541 C0.0022110245,29.9657416 1.11654014,30.7393138 3.02681862,30.7393138 L7.28514773,30.7393138 Z" id="path-1"></path>
        <ellipse id="path-3" cx="1.90696456" cy="24.5982367" rx="11.6075949" ry="11.8750108"></ellipse>
        <filter x="-23.7%" y="-14.7%" width="147.4%" height="146.3%" filterUnits="objectBoundingBox" id="filter-4">
            <feOffset dx="0" dy="2" in="SourceAlpha" result="shadowOffsetOuter1"></feOffset>
            <feGaussianBlur stdDeviation="1.5" in="shadowOffsetOuter1" result="shadowBlurOuter1"></feGaussianBlur>
            <feColorMatrix values="0 0 0 0 0.751833546   0 0 0 0 0.751833546   0 0 0 0 0.751833546  0 0 0 0.292430933 0" type="matrix" in="shadowBlurOuter1"></feColorMatrix>
        </filter>
    </defs>
    <g id="Landing-page" stroke="none" stroke-width="1" fill="none" fill-rule="evenodd">
        <g id="Artboard-2-Copy">
            <g id="Group-9" transform="translate(4.000000, 12.000000)">
                <g id="Group-8-Copy-4">
                    <g id="Group-4">
                        <g id="Group-3">
                            <mask id="mask-2" fill="white">
                                <use xlink:href="#path-1"></use>
                            </mask>
                            <use id="p-copy" fill="#008DEA" xlink:href="#path-1"></use>
                            <g id="Oval-3-Copy-2" mask="url(#mask-2)">
                                <use fill="black" fill-opacity="1" filter="url(#filter-4)" xlink:href="#path-3"></use>
                                <use fill="#5EBCF9" fill-rule="evenodd" xlink:href="#path-3"></use>
                            </g>
                        </g>
                        <path d="M37.1973671,3.42339598 C38.2918029,3.42339598 39.3016536,3.6320548 40.2269494,4.0493787 C41.1522451,4.46670259 41.9531612,5.04178665 42.6297215,5.77464813 C43.3062819,6.5075096 43.833593,7.36250183 44.2116709,8.33965047 C44.5897487,9.3167991 44.7787848,10.3651824 44.7787848,11.4848319 C44.7787848,12.5841241 44.5897487,13.622329 44.2116709,14.5994776 C43.833593,15.5766262 43.3062819,16.4316185 42.6297215,17.16448 C41.9531612,17.8973414 41.1522451,18.4724255 40.2269494,18.8897494 C39.3016536,19.3070733 38.2918029,19.5157321 37.1973671,19.5157321 C35.9835382,19.5157321 34.9189666,19.2816271 34.0036203,18.81341 L34.0036203,15.5460856 C34.4811923,15.7496583 35.0840686,16.1463207 36.7816945,16.0506572 C38.4793204,15.9549938 39.5255169,14.9964444 39.9433924,14.5689419 C40.7791434,13.7139368 41.1970127,12.6859104 41.1970127,11.4848319 C41.1970127,10.2633961 40.7791434,9.22519127 39.9433924,8.37018621 C39.0678437,7.51518116 38.0530184,7.08768504 36.8988861,7.08768504 C35.7049561,7.08768504 34.6901308,7.51518116 33.8543797,8.37018621 C33.0186287,9.22519127 32.6007595,10.2633961 32.6007595,11.4848319 L32.6007595,25.2259159 L29.5189873,25.2259159 L29.5189873,25.2259159 C29.242845,25.2259159 29.0189873,25.0020583 29.0189873,24.7259159 L29.0189873,4.32036063 L29.0189873,4.32036063 C29.0189873,4.04421826 29.242845,3.82036063 29.5189873,3.82036063 L32.6007595,3.82036063 L32.6007595,5.04179032 C33.1778257,4.57357326 33.8444266,4.18679106 34.6005823,3.88143211 C35.356738,3.57607317 36.2223242,3.42339598 37.1973671,3.42339598 Z M61.4671899,4.32036063 L61.4671899,19.1187675 L57.8854178,19.1187675 L57.8854178,11.4848319 C57.8854178,10.2633961 57.4675485,9.22519127 56.6317975,8.37018621 C55.7960465,7.51518116 54.7812212,7.08768504 53.5872912,7.08768504 C53.010225,7.08768504 52.4580406,7.19964831 51.9307216,7.4235782 C51.4034025,7.6475081 50.9407615,7.96304095 50.5427848,8.37018621 C49.7070338,9.22519127 49.2891646,10.2633961 49.2891646,11.4848319 C49.2891646,12.6859104 49.7070338,13.7139368 50.5427848,14.5689419 C50.7373451,14.7779365 51.673027,15.607594 53.0169243,15.7990335 C54.4219948,15.9991871 56.2384572,15.5136098 56.482557,15.4095584 L56.482557,18.81341 C55.5672106,19.2816271 54.502639,19.5157321 53.2888102,19.5157321 C52.1943743,19.5157321 51.1845236,19.3070733 50.2592279,18.8897494 C49.3339321,18.4724255 48.5330161,17.8973414 47.8564557,17.16448 C47.1798954,16.4316185 46.6525842,15.5766262 46.2745064,14.5994776 C45.8964285,13.622329 45.7073924,12.5841241 45.7073924,11.4848319 C45.7073924,10.3651824 45.8964285,9.3167991 46.2745064,8.33965047 C46.6525842,7.36250183 47.1798954,6.5075096 47.8564557,5.77464813 C48.5330161,5.04178665 49.3339321,4.46670259 50.2592279,4.0493787 C51.1845236,3.6320548 52.1943743,3.42339598 53.2888102,3.42339598 C54.263853,3.42339598 55.1294393,3.57607317 55.885595,3.88143211 C56.6417506,4.18679106 57.3083516,4.57357326 57.8854178,5.04179032 L57.8854178,3.82036063 L60.9671899,3.82036063 L60.9671899,3.82036063 C61.2433323,3.82036063 61.4671899,4.04421826 61.4671899,4.32036063 Z M67.7684558,5.01125457 C68.3256231,4.54303752 68.9574016,4.15625532 69.6638102,3.85089637 C70.3702188,3.54553742 71.1711348,3.39286024 72.0665823,3.39286024 L72.0665823,7.0571493 C70.8726523,7.0571493 69.857827,7.48464541 69.022076,8.33965047 C68.186325,9.23537005 67.7684558,10.2735749 67.7684558,11.4542962 L67.7684558,19.1187675 L64.6866836,19.1187675 L64.6866836,19.1187675 C64.4105412,19.1187675 64.1866836,18.8949098 64.1866836,18.6187675 L64.1866836,4.32036063 L64.1866836,4.32036063 C64.1866836,4.04421826 64.4105412,3.82036063 64.6866836,3.82036063 L67.7684558,3.82036063 L67.7684558,5.01125457 Z M107.473063,3.42339598 C108.308814,3.42339598 109.040086,3.58625165 109.666899,3.91196786 C110.293712,4.23768407 110.806099,4.68553714 111.204076,5.25554051 C111.602053,5.82554388 111.900531,6.48714501 112.099519,7.24036375 C112.298507,7.99358249 112.398,8.80786081 112.398,9.68322312 L112.398,19.1187675 L108.816228,19.1187675 L108.816228,9.68322312 C108.816228,8.97071891 108.567496,8.36001018 108.070025,7.8510786 C107.592453,7.34214701 106.995497,7.08768504 106.279139,7.08768504 C105.562781,7.08768504 104.965825,7.34214701 104.488253,7.8510786 C103.990782,8.36001018 103.742051,8.97071891 103.742051,9.68322312 L103.742051,19.1187675 L100.160279,19.1187675 L100.160279,9.68322312 C100.160279,8.97071891 99.9115469,8.36001018 99.4140761,7.8510786 C99.1752901,7.58643417 98.9016852,7.39304307 98.5932533,7.27089949 C98.2848214,7.14875591 97.9614702,7.08768504 97.62319,7.08768504 C96.8869332,7.08768504 96.2800278,7.34214701 95.8024558,7.8510786 C95.304985,8.36001018 95.0562533,8.97071891 95.0562533,9.68322312 L95.0562533,19.1187675 L91.9744811,19.1187675 L91.9744811,19.1187675 C91.6983388,19.1187675 91.4744811,18.8949098 91.4744811,18.6187675 L91.4744811,4.35089637 C91.4744811,4.074754 91.6983388,3.85089637 91.9744811,3.85089637 L95.0562533,3.85089637 L95.0562533,5.19446903 C95.6333195,4.68553745 96.2402248,4.26313057 96.8769875,3.92723573 C97.5137501,3.59134088 98.1604525,3.42339598 98.8171141,3.42339598 C99.7125616,3.42339598 100.448807,3.6066086 101.025874,3.97303934 C101.60294,4.33947008 102.120302,4.84839403 102.577975,5.49982645 C103.115243,4.90946582 103.811692,4.41580959 104.667342,4.01884295 C105.522992,3.62187632 106.458223,3.42339598 107.473063,3.42339598 Z M88.8279494,4.32036063 L88.8279494,19.1187675 L85.2461772,19.1187675 L85.2461772,11.4848319 C85.2461772,10.2633961 84.828308,9.22519127 83.992557,8.37018621 C83.156806,7.51518116 82.1419807,7.08768504 80.9480507,7.08768504 C80.3709845,7.08768504 79.8188001,7.19964831 79.291481,7.4235782 C78.764162,7.6475081 78.301521,7.96304095 77.9035443,8.37018621 C77.0677933,9.22519127 76.6499241,10.2633961 76.6499241,11.4848319 C76.6499241,12.6859104 77.0677933,13.7139368 77.9035443,14.5689419 C78.0981045,14.7779365 79.0337865,15.607594 80.3776838,15.7990335 C81.7827543,15.9991871 83.5992167,15.5136098 83.8433165,15.4095584 L83.8433165,18.81341 C82.9279701,19.2816271 81.8633985,19.5157321 80.6495697,19.5157321 C79.5551338,19.5157321 78.5452831,19.3070733 77.6199874,18.8897494 C76.6946916,18.4724255 75.8937756,17.8973414 75.2172152,17.16448 C74.5406549,16.4316185 74.0133437,15.5766262 73.6352659,14.5994776 C73.257188,13.622329 73.0681519,12.5841241 73.0681519,11.4848319 C73.0681519,10.3651824 73.257188,9.3167991 73.6352659,8.33965047 C74.0133437,7.36250183 74.5406549,6.5075096 75.2172152,5.77464813 C75.8937756,5.04178665 76.6946916,4.46670259 77.6199874,4.0493787 C78.5452831,3.6320548 79.5551338,3.42339598 80.6495697,3.42339598 C81.6246125,3.42339598 82.4901988,3.57607317 83.2463545,3.88143211 C84.0025101,4.18679106 84.6691111,4.57357326 85.2461772,5.04179032 L85.2461772,3.82036063 L88.3279494,3.82036063 C88.6040918,3.82036063 88.8279494,4.04421826 88.8279494,4.32036063 L88.8279494,4.32036063 Z" id="Combined-Shape" fill="#374554"></path>
                    </g>
                </g>
                <path d="M126.48962,10.5338503 L126.48962,18.7070802 L124.499747,18.7070802 L124.499747,14.5038717 C124.499747,13.8313549 124.267597,13.2597243 123.803291,12.7889626 C123.338985,12.3182009 122.775193,12.0828235 122.111899,12.0828235 C121.791306,12.0828235 121.484537,12.14447 121.191582,12.2677647 C120.898627,12.3910594 120.641604,12.5647903 120.420506,12.7889626 C119.9562,13.2597243 119.724051,13.8313549 119.724051,14.5038717 C119.724051,15.1651798 119.9562,15.7312062 120.420506,16.2019679 C120.641604,16.4373488 120.898627,16.6138818 121.191582,16.7315722 C121.484537,16.8492626 121.650668,16.908107 122.111899,16.908107 C122.573129,16.908107 123.455062,16.739992 123.72038,16.6279059 L123.72038,18.5389519 C123.211854,18.79675 122.620425,18.9256471 121.946076,18.9256471 C121.338056,18.9256471 120.777028,18.8107605 120.262975,18.580984 C119.748921,18.3512074 119.303968,18.0345689 118.928101,17.6310588 C118.552234,17.2275488 118.259284,16.7567941 118.049241,16.2187807 C117.839197,15.6807674 117.734177,15.1091367 117.734177,14.5038717 C117.734177,13.887398 117.839197,13.3101631 118.049241,12.7721497 C118.259284,12.2341363 118.552234,11.7633817 118.928101,11.3598717 C119.303968,10.9563616 119.748921,10.6397231 120.262975,10.4099465 C120.777028,10.18017 121.338056,10.0652834 121.946076,10.0652834 C122.487766,10.0652834 122.968648,10.1493468 123.388734,10.3174759 C123.808821,10.4856051 124.179155,10.6985656 124.499747,10.9563636 L124.499747,10.2838503 L126.23962,10.2838503 L126.23962,10.2838503 C126.377691,10.2838503 126.48962,10.3957791 126.48962,10.5338503 Z M128.590042,18.7070802 L128.590042,10.5506631 L128.590042,10.5506631 C128.590042,10.4125919 128.701971,10.3006631 128.840042,10.3006631 L130.579916,10.3006631 L130.579916,18.7070802 L128.590042,18.7070802 Z M129.584979,6.72513369 L129.584979,6.72513369 L129.584979,6.72513369 C130.25047,6.72513369 130.789958,7.26462112 130.789958,7.93011259 L130.789958,7.96362003 L130.789958,7.96362003 C130.789958,8.6291115 130.25047,9.16859893 129.584979,9.16859893 L129.584979,9.16859893 L129.584979,9.16859893 C128.919487,9.16859893 128.38,8.6291115 128.38,7.96362003 L128.38,7.93011259 L128.38,7.93011259 C128.38,7.26462112 128.919487,6.72513369 129.584979,6.72513369 Z" id="ai-copy" fill="#008CEC"></path>
                <ellipse id="Oval" fill="#008BEE" cx="115.523207" cy="17.9336898" rx="1.10548523" ry="1.12085561"></ellipse>
            </g>
        </g>
    </g>
</svg>