<svg width="48" height="48" viewBox="0 0 48 48" fill="none" xmlns="http://www.w3.org/2000/svg">
<rect width="48" height="48" fill="white"/>
<path d="M44 24C44 35.044 35.044 44 24 44C12.956 44 4 35.044 4 24C4 12.956 12.956 4 24 4C35.044 4 44 12.956 44 24Z" fill="#CFD8DC"/>
<path d="M41 24C41 33.391 33.391 41 24 41C14.609 41 7 33.391 7 24C7 14.609 14.609 7 24 7C33.391 7 41 14.609 41 24Z" fill="#448AFF"/>
<path d="M21.898 21.898L26.101 26.101L35.3 12.699L21.898 21.898V21.898Z" fill="#FF3D00"/>
<path d="M24 24L35.301 12.699L26.102 26.101L24 24Z" fill="#BF360C"/>
<path d="M21.898 21.898L12.699 35.3L26.101 26.101L21.898 21.898Z" fill="white"/>
<path d="M24 24L12.699 35.301L26.101 26.102L24 24Z" fill="#BDBDBD"/>
<path d="M17.102 10.699C17.7 10.398 18.301 10.101 18.899 9.898L20.102 12.601L18.301 13.398L17.102 10.699ZM36 25H38.898C38.898 24.699 39 24.301 39 24C39 23.699 39 23.301 38.898 23H36V25ZM12.699 14.102L14.801 16.2L16.199 14.802L14.101 12.7L12.699 14.102V14.102ZM25 9.102C24.699 9 24.301 9 24 9C23.699 9 23.301 9 23 9.102V12H25V9.102ZM30.398 10.5C29.8 10.199 29.199 10 28.5 9.801L27.398 12.602L29.3 13.301L30.398 10.5ZM12.5 20.5L13.199 18.602L10.5 17.5C10.199 18.102 10 18.699 9.801 19.398L12.5 20.5ZM12 23H9.102C9 23.301 9 23.699 9 24C9 24.301 9 24.699 9.102 25H12V23ZM35.5 27.5L34.801 29.398L37.5 30.5C37.801 29.898 38 29.301 38.199 28.602L35.5 27.5ZM38.102 18.898C37.899 18.3 37.602 17.699 37.301 17.101L34.602 18.3L35.399 20.101L38.102 18.898ZM35.301 33.898L33.199 31.8L31.801 33.198L33.899 35.3L35.301 33.898V33.898ZM13.398 29.699L12.601 27.898L9.898 29.101C10.101 29.699 10.398 30.3 10.699 30.898L13.398 29.699ZM29.699 34.602L27.898 35.399L29.101 38.102C29.699 37.899 30.3 37.602 30.898 37.301L29.699 34.602ZM20.5 35.5L18.602 34.801L17.5 37.5C18.102 37.801 18.699 38 19.398 38.199L20.5 35.5ZM25 38.898V36H23V38.898C23.301 38.898 23.699 39 24 39C24.301 39 24.699 39 25 38.898Z" fill="#BBDEFB"/>
</svg>
