<svg width="104" height="94" viewBox="0 0 104 94" fill="none" xmlns="http://www.w3.org/2000/svg">
<path fill-rule="evenodd" clip-rule="evenodd" d="M11.2125 93.062H92.7875C101.129 93.062 106.329 84.0161 102.158 76.812L61.3708 6.34113C57.2 -0.863038 46.8 -0.863038 42.6292 6.34113L1.84166 76.812C-2.32917 84.0161 2.87083 93.062 11.2125 93.062ZM52 55.1453C49.0208 55.1453 46.5833 52.7078 46.5833 49.7286V38.8953C46.5833 35.9161 49.0208 33.4786 52 33.4786C54.9792 33.4786 57.4167 35.9161 57.4167 38.8953V49.7286C57.4167 52.7078 54.9792 55.1453 52 55.1453ZM46.5833 76.812H57.4167V65.9786H46.5833V76.812Z" fill="#F17743"/>
</svg>
